<svg width="62" height="61" viewBox="0 0 62 61" fill="none" xmlns="http://www.w3.org/2000/svg">
<g id="command-line">
<rect x="1" y="0.5" width="60" height="60" rx="7.5" stroke="white"/>
<path id="Vector" d="M33.8196 20.5417C35.1045 19.6851 36.7738 19.6673 38.0767 20.4964L43.4785 23.9339H45.7C46.418 23.9339 47 24.516 47 25.234V36.934C47 37.652 46.418 38.234 45.7 38.234H43.7244C43.8017 39.4655 43.2215 40.7175 42.0544 41.4178L35.4329 45.3907C34.597 45.8922 33.5593 45.8805 32.7409 45.3809C31.8305 46.186 30.4291 46.2746 29.4124 45.4758L22.7294 40.2247C21.733 39.442 21.4811 38.1046 21.9955 37.0443C21.3672 36.5516 21 35.7972 21 34.9983V25.234C21 24.5161 21.582 23.934 22.3 23.934H28.7311L33.8196 20.5417ZM23.8245 35.1729L24.7241 34.3857C26.3234 32.9863 28.7486 33.1249 30.1781 34.6974L33.691 38.5615C34.8213 39.805 35.0275 41.6318 34.2054 43.0949L40.7166 39.1882C41.0825 38.9688 41.2148 38.5301 41.0784 38.1605L35.3232 30.1033C34.9998 29.6507 34.4245 29.4539 33.8917 29.6137L30.6609 30.5829C29.2866 30.9952 27.797 30.6196 26.7824 29.6051L26.4018 29.2245C25.6634 28.4861 25.4725 27.4352 25.7832 26.5341H23.6V34.9983L23.8245 35.1729ZM36.6809 22.69C36.2466 22.4136 35.6901 22.4195 35.2618 22.7051L28.2403 27.386L28.6209 27.7666C28.9591 28.1048 29.4557 28.23 29.9137 28.0926L33.1446 27.1233C34.7428 26.6438 36.4691 27.2342 37.4389 28.592L42.4689 35.634H44.4V26.534H43.4785C42.984 26.534 42.4997 26.393 42.0826 26.1275L36.6809 22.69ZM26.4362 36.3424L24.3357 38.1803L31.0188 43.4314L31.9339 41.8299C32.2134 41.3408 32.1461 40.7273 31.7671 40.3104L28.2542 36.4463C27.7777 35.9221 26.9693 35.8759 26.4362 36.3424Z" fill="white"/>
</g>
</svg>
