<svg width="62" height="61" viewBox="0 0 62 61" fill="none" xmlns="http://www.w3.org/2000/svg">
<g id="command-line">
<rect x="0.666626" y="0.5" width="60" height="60" rx="7.5" stroke="white"/>
<path id="Vector" d="M33.4862 20.5417C34.7711 19.6851 36.4405 19.6673 37.7433 20.4964L43.1452 23.9339H45.3666C46.0846 23.9339 46.6666 24.516 46.6666 25.234V36.934C46.6666 37.652 46.0846 38.234 45.3666 38.234H43.391C43.4683 39.4655 42.8881 40.7175 41.721 41.4178L35.0995 45.3907C34.2636 45.8922 33.2259 45.8805 32.4076 45.3809C31.4972 46.186 30.0958 46.2746 29.0791 45.4758L22.396 40.2247C21.3997 39.442 21.1477 38.1046 21.6622 37.0443C21.0339 36.5516 20.6666 35.7972 20.6666 34.9983V25.234C20.6666 24.5161 21.2487 23.934 21.9666 23.934H28.3977L33.4862 20.5417ZM23.4911 35.1729L24.3907 34.3857C25.99 32.9863 28.4152 33.1249 29.8447 34.6974L33.3576 38.5615C34.488 39.805 34.6942 41.6318 33.872 43.0949L40.3833 39.1882C40.7491 38.9688 40.8814 38.5301 40.7451 38.1605L34.9898 30.1033C34.6665 29.6507 34.0911 29.4539 33.5583 29.6137L30.3275 30.5829C28.9532 30.9952 27.4636 30.6196 26.4491 29.6051L26.0685 29.2245C25.33 28.4861 25.1391 27.4352 25.4498 26.5341H23.2667V34.9983L23.4911 35.1729ZM36.3475 22.69C35.9132 22.4136 35.3568 22.4195 34.9284 22.7051L27.907 27.386L28.2876 27.7666C28.6257 28.1048 29.1223 28.23 29.5804 28.0926L32.8112 27.1233C34.4095 26.6438 36.1357 27.2342 37.1056 28.592L42.1356 35.634H44.0666V26.534H43.1452C42.6506 26.534 42.1664 26.393 41.7492 26.1275L36.3475 22.69ZM26.1029 36.3424L24.0024 38.1803L30.6854 43.4314L31.6005 41.8299C31.88 41.3408 31.8127 40.7273 31.4337 40.3104L27.9209 36.4463C27.4444 35.9221 26.636 35.8759 26.1029 36.3424Z" fill="white"/>
</g>
</svg>
