<svg width="62" height="61" viewBox="0 0 62 61" fill="none" xmlns="http://www.w3.org/2000/svg">
<g id="command-line">
<rect x="0.666626" y="0.5" width="60" height="60" rx="7.5" stroke="white"/>
<path id="Vector" d="M28.1111 25.2222H33.8889V23.0556C33.8889 20.2634 36.1523 18 38.9444 18C41.7366 18 44 20.2634 44 23.0556C44 25.8477 41.7366 28.1111 38.9444 28.1111H36.7778V33.8889H38.9444C41.7366 33.8889 44 36.1523 44 38.9444C44 41.7366 41.7366 44 38.9444 44C36.1523 44 33.8889 41.7366 33.8889 38.9444V36.7778H28.1111V38.9444C28.1111 41.7366 25.8477 44 23.0556 44C20.2634 44 18 41.7366 18 38.9444C18 36.1523 20.2634 33.8889 23.0556 33.8889H25.2222V28.1111H23.0556C20.2634 28.1111 18 25.8477 18 23.0556C18 20.2634 20.2634 18 23.0556 18C25.8477 18 28.1111 20.2634 28.1111 23.0556V25.2222ZM25.2222 25.2222V23.0556C25.2222 21.8589 24.2522 20.8889 23.0556 20.8889C21.8589 20.8889 20.8889 21.8589 20.8889 23.0556C20.8889 24.2522 21.8589 25.2222 23.0556 25.2222H25.2222ZM25.2222 36.7778H23.0556C21.8589 36.7778 20.8889 37.7479 20.8889 38.9444C20.8889 40.141 21.8589 41.1111 23.0556 41.1111C24.2522 41.1111 25.2222 40.141 25.2222 38.9444V36.7778ZM36.7778 25.2222H38.9444C40.141 25.2222 41.1111 24.2522 41.1111 23.0556C41.1111 21.8589 40.141 20.8889 38.9444 20.8889C37.7479 20.8889 36.7778 21.8589 36.7778 23.0556V25.2222ZM36.7778 36.7778V38.9444C36.7778 40.141 37.7479 41.1111 38.9444 41.1111C40.141 41.1111 41.1111 40.141 41.1111 38.9444C41.1111 37.7479 40.141 36.7778 38.9444 36.7778H36.7778ZM28.1111 28.1111V33.8889H33.8889V28.1111H28.1111Z" fill="white"/>
</g>
</svg>
